<mxfile host="Electron" modified="2023-10-17T09:00:53.030Z" agent="Mozilla/5.0 (Windows NT 10.0; Win64; x64) AppleWebKit/537.36 (KHTML, like Gecko) draw.io/22.0.2 Chrome/114.0.5735.289 Electron/25.8.4 Safari/537.36" etag="-ZqO7JlL1KR5B0_Ldi06" version="22.0.2" type="device">
  <diagram name="페이지-1" id="LxDthyqH6iBjdwmtmywA">
    <mxGraphModel dx="1100" dy="809" grid="1" gridSize="10" guides="1" tooltips="1" connect="1" arrows="1" fold="1" page="1" pageScale="1" pageWidth="827" pageHeight="1169" math="0" shadow="0">
      <root>
        <mxCell id="0" />
        <mxCell id="1" parent="0" />
        <mxCell id="ekZ0UK3QLFoGiUCUk67n-57" value="" style="group" vertex="1" connectable="0" parent="1">
          <mxGeometry x="120" width="600" height="203" as="geometry" />
        </mxCell>
        <mxCell id="ekZ0UK3QLFoGiUCUk67n-1" value="" style="shape=table;startSize=0;container=1;collapsible=0;childLayout=tableLayout;fontSize=16;" vertex="1" parent="ekZ0UK3QLFoGiUCUk67n-57">
          <mxGeometry y="90" width="600" height="40" as="geometry" />
        </mxCell>
        <mxCell id="ekZ0UK3QLFoGiUCUk67n-2" value="" style="shape=tableRow;horizontal=0;startSize=0;swimlaneHead=0;swimlaneBody=0;strokeColor=inherit;top=0;left=0;bottom=0;right=0;collapsible=0;dropTarget=0;fillColor=none;points=[[0,0.5],[1,0.5]];portConstraint=eastwest;fontSize=16;" vertex="1" parent="ekZ0UK3QLFoGiUCUk67n-1">
          <mxGeometry width="600" height="40" as="geometry" />
        </mxCell>
        <mxCell id="ekZ0UK3QLFoGiUCUk67n-3" value="" style="shape=partialRectangle;html=1;whiteSpace=wrap;connectable=0;strokeColor=inherit;overflow=hidden;fillColor=none;top=0;left=0;bottom=0;right=0;pointerEvents=1;fontSize=16;" vertex="1" parent="ekZ0UK3QLFoGiUCUk67n-2">
          <mxGeometry width="60" height="40" as="geometry">
            <mxRectangle width="60" height="40" as="alternateBounds" />
          </mxGeometry>
        </mxCell>
        <mxCell id="ekZ0UK3QLFoGiUCUk67n-4" value="" style="shape=partialRectangle;html=1;whiteSpace=wrap;connectable=0;strokeColor=inherit;overflow=hidden;fillColor=none;top=0;left=0;bottom=0;right=0;pointerEvents=1;fontSize=16;" vertex="1" parent="ekZ0UK3QLFoGiUCUk67n-2">
          <mxGeometry x="60" width="60" height="40" as="geometry">
            <mxRectangle width="60" height="40" as="alternateBounds" />
          </mxGeometry>
        </mxCell>
        <mxCell id="ekZ0UK3QLFoGiUCUk67n-5" value="" style="shape=partialRectangle;html=1;whiteSpace=wrap;connectable=0;strokeColor=inherit;overflow=hidden;fillColor=none;top=0;left=0;bottom=0;right=0;pointerEvents=1;fontSize=16;" vertex="1" parent="ekZ0UK3QLFoGiUCUk67n-2">
          <mxGeometry x="120" width="60" height="40" as="geometry">
            <mxRectangle width="60" height="40" as="alternateBounds" />
          </mxGeometry>
        </mxCell>
        <mxCell id="ekZ0UK3QLFoGiUCUk67n-14" style="shape=partialRectangle;html=1;whiteSpace=wrap;connectable=0;strokeColor=inherit;overflow=hidden;fillColor=none;top=0;left=0;bottom=0;right=0;pointerEvents=1;fontSize=16;" vertex="1" parent="ekZ0UK3QLFoGiUCUk67n-2">
          <mxGeometry x="180" width="60" height="40" as="geometry">
            <mxRectangle width="60" height="40" as="alternateBounds" />
          </mxGeometry>
        </mxCell>
        <mxCell id="ekZ0UK3QLFoGiUCUk67n-15" style="shape=partialRectangle;html=1;whiteSpace=wrap;connectable=0;strokeColor=inherit;overflow=hidden;fillColor=none;top=0;left=0;bottom=0;right=0;pointerEvents=1;fontSize=16;" vertex="1" parent="ekZ0UK3QLFoGiUCUk67n-2">
          <mxGeometry x="240" width="60" height="40" as="geometry">
            <mxRectangle width="60" height="40" as="alternateBounds" />
          </mxGeometry>
        </mxCell>
        <mxCell id="ekZ0UK3QLFoGiUCUk67n-16" style="shape=partialRectangle;html=1;whiteSpace=wrap;connectable=0;strokeColor=inherit;overflow=hidden;fillColor=none;top=0;left=0;bottom=0;right=0;pointerEvents=1;fontSize=16;" vertex="1" parent="ekZ0UK3QLFoGiUCUk67n-2">
          <mxGeometry x="300" width="60" height="40" as="geometry">
            <mxRectangle width="60" height="40" as="alternateBounds" />
          </mxGeometry>
        </mxCell>
        <mxCell id="ekZ0UK3QLFoGiUCUk67n-17" style="shape=partialRectangle;html=1;whiteSpace=wrap;connectable=0;strokeColor=inherit;overflow=hidden;fillColor=none;top=0;left=0;bottom=0;right=0;pointerEvents=1;fontSize=16;" vertex="1" parent="ekZ0UK3QLFoGiUCUk67n-2">
          <mxGeometry x="360" width="60" height="40" as="geometry">
            <mxRectangle width="60" height="40" as="alternateBounds" />
          </mxGeometry>
        </mxCell>
        <mxCell id="ekZ0UK3QLFoGiUCUk67n-18" style="shape=partialRectangle;html=1;whiteSpace=wrap;connectable=0;strokeColor=inherit;overflow=hidden;fillColor=none;top=0;left=0;bottom=0;right=0;pointerEvents=1;fontSize=16;" vertex="1" parent="ekZ0UK3QLFoGiUCUk67n-2">
          <mxGeometry x="420" width="60" height="40" as="geometry">
            <mxRectangle width="60" height="40" as="alternateBounds" />
          </mxGeometry>
        </mxCell>
        <mxCell id="ekZ0UK3QLFoGiUCUk67n-19" style="shape=partialRectangle;html=1;whiteSpace=wrap;connectable=0;strokeColor=inherit;overflow=hidden;fillColor=none;top=0;left=0;bottom=0;right=0;pointerEvents=1;fontSize=16;" vertex="1" parent="ekZ0UK3QLFoGiUCUk67n-2">
          <mxGeometry x="480" width="60" height="40" as="geometry">
            <mxRectangle width="60" height="40" as="alternateBounds" />
          </mxGeometry>
        </mxCell>
        <mxCell id="ekZ0UK3QLFoGiUCUk67n-20" style="shape=partialRectangle;html=1;whiteSpace=wrap;connectable=0;strokeColor=inherit;overflow=hidden;fillColor=none;top=0;left=0;bottom=0;right=0;pointerEvents=1;fontSize=16;" vertex="1" parent="ekZ0UK3QLFoGiUCUk67n-2">
          <mxGeometry x="540" width="60" height="40" as="geometry">
            <mxRectangle width="60" height="40" as="alternateBounds" />
          </mxGeometry>
        </mxCell>
        <mxCell id="ekZ0UK3QLFoGiUCUk67n-21" value="" style="endArrow=classic;startArrow=classic;html=1;rounded=0;" edge="1" parent="ekZ0UK3QLFoGiUCUk67n-57">
          <mxGeometry width="50" height="50" relative="1" as="geometry">
            <mxPoint y="70" as="sourcePoint" />
            <mxPoint x="600" y="70" as="targetPoint" />
          </mxGeometry>
        </mxCell>
        <mxCell id="ekZ0UK3QLFoGiUCUk67n-22" value="&lt;font style=&quot;font-size: 15px;&quot;&gt;&lt;b&gt;배열 길이(length)&lt;/b&gt;&lt;/font&gt;" style="text;html=1;strokeColor=none;fillColor=none;align=center;verticalAlign=middle;whiteSpace=wrap;rounded=0;" vertex="1" parent="ekZ0UK3QLFoGiUCUk67n-57">
          <mxGeometry x="214" width="160" height="30" as="geometry" />
        </mxCell>
        <mxCell id="ekZ0UK3QLFoGiUCUk67n-24" value="10 개" style="text;html=1;strokeColor=none;fillColor=none;align=center;verticalAlign=middle;whiteSpace=wrap;rounded=0;" vertex="1" parent="ekZ0UK3QLFoGiUCUk67n-57">
          <mxGeometry x="270" y="30" width="60" height="30" as="geometry" />
        </mxCell>
        <mxCell id="ekZ0UK3QLFoGiUCUk67n-26" value="" style="endArrow=classic;startArrow=classic;html=1;rounded=0;strokeColor=#CCCCCC;" edge="1" parent="ekZ0UK3QLFoGiUCUk67n-57">
          <mxGeometry width="50" height="50" relative="1" as="geometry">
            <mxPoint y="140" as="sourcePoint" />
            <mxPoint x="60" y="140" as="targetPoint" />
          </mxGeometry>
        </mxCell>
        <mxCell id="ekZ0UK3QLFoGiUCUk67n-27" value="4 바이트" style="text;html=1;strokeColor=none;fillColor=none;align=center;verticalAlign=middle;whiteSpace=wrap;rounded=0;" vertex="1" parent="ekZ0UK3QLFoGiUCUk67n-57">
          <mxGeometry y="143" width="60" height="30" as="geometry" />
        </mxCell>
        <mxCell id="ekZ0UK3QLFoGiUCUk67n-28" value="" style="endArrow=classic;startArrow=classic;html=1;rounded=0;strokeColor=#CCCCCC;" edge="1" parent="ekZ0UK3QLFoGiUCUk67n-57">
          <mxGeometry width="50" height="50" relative="1" as="geometry">
            <mxPoint y="170" as="sourcePoint" />
            <mxPoint x="600" y="170" as="targetPoint" />
          </mxGeometry>
        </mxCell>
        <mxCell id="ekZ0UK3QLFoGiUCUk67n-29" value="40 바이트 (배열 전체 바이트)" style="text;html=1;strokeColor=none;fillColor=none;align=center;verticalAlign=middle;whiteSpace=wrap;rounded=0;" vertex="1" parent="ekZ0UK3QLFoGiUCUk67n-57">
          <mxGeometry x="206" y="173" width="176" height="30" as="geometry" />
        </mxCell>
        <mxCell id="ekZ0UK3QLFoGiUCUk67n-58" value="" style="group" vertex="1" connectable="0" parent="1">
          <mxGeometry x="200" y="240" width="440" height="80" as="geometry" />
        </mxCell>
        <mxCell id="ekZ0UK3QLFoGiUCUk67n-36" value="" style="shape=table;startSize=0;container=1;collapsible=0;childLayout=tableLayout;fontSize=16;" vertex="1" parent="ekZ0UK3QLFoGiUCUk67n-58">
          <mxGeometry y="40" width="440" height="40" as="geometry" />
        </mxCell>
        <mxCell id="ekZ0UK3QLFoGiUCUk67n-37" value="" style="shape=tableRow;horizontal=0;startSize=0;swimlaneHead=0;swimlaneBody=0;strokeColor=inherit;top=0;left=0;bottom=0;right=0;collapsible=0;dropTarget=0;fillColor=none;points=[[0,0.5],[1,0.5]];portConstraint=eastwest;fontSize=16;" vertex="1" parent="ekZ0UK3QLFoGiUCUk67n-36">
          <mxGeometry width="440" height="40" as="geometry" />
        </mxCell>
        <mxCell id="ekZ0UK3QLFoGiUCUk67n-38" value="null" style="shape=partialRectangle;html=1;whiteSpace=wrap;connectable=0;strokeColor=inherit;overflow=hidden;fillColor=none;top=0;left=0;bottom=0;right=0;pointerEvents=1;fontSize=16;" vertex="1" parent="ekZ0UK3QLFoGiUCUk67n-37">
          <mxGeometry width="88" height="40" as="geometry">
            <mxRectangle width="88" height="40" as="alternateBounds" />
          </mxGeometry>
        </mxCell>
        <mxCell id="ekZ0UK3QLFoGiUCUk67n-39" value="null" style="shape=partialRectangle;html=1;whiteSpace=wrap;connectable=0;strokeColor=inherit;overflow=hidden;fillColor=none;top=0;left=0;bottom=0;right=0;pointerEvents=1;fontSize=16;" vertex="1" parent="ekZ0UK3QLFoGiUCUk67n-37">
          <mxGeometry x="88" width="89" height="40" as="geometry">
            <mxRectangle width="89" height="40" as="alternateBounds" />
          </mxGeometry>
        </mxCell>
        <mxCell id="ekZ0UK3QLFoGiUCUk67n-40" value="null" style="shape=partialRectangle;html=1;whiteSpace=wrap;connectable=0;strokeColor=inherit;overflow=hidden;fillColor=none;top=0;left=0;bottom=0;right=0;pointerEvents=1;fontSize=16;" vertex="1" parent="ekZ0UK3QLFoGiUCUk67n-37">
          <mxGeometry x="177" width="87" height="40" as="geometry">
            <mxRectangle width="87" height="40" as="alternateBounds" />
          </mxGeometry>
        </mxCell>
        <mxCell id="ekZ0UK3QLFoGiUCUk67n-49" value="null" style="shape=partialRectangle;html=1;whiteSpace=wrap;connectable=0;strokeColor=inherit;overflow=hidden;fillColor=none;top=0;left=0;bottom=0;right=0;pointerEvents=1;fontSize=16;" vertex="1" parent="ekZ0UK3QLFoGiUCUk67n-37">
          <mxGeometry x="264" width="88" height="40" as="geometry">
            <mxRectangle width="88" height="40" as="alternateBounds" />
          </mxGeometry>
        </mxCell>
        <mxCell id="ekZ0UK3QLFoGiUCUk67n-50" value="null" style="shape=partialRectangle;html=1;whiteSpace=wrap;connectable=0;strokeColor=inherit;overflow=hidden;fillColor=none;top=0;left=0;bottom=0;right=0;pointerEvents=1;fontSize=16;" vertex="1" parent="ekZ0UK3QLFoGiUCUk67n-37">
          <mxGeometry x="352" width="88" height="40" as="geometry">
            <mxRectangle width="88" height="40" as="alternateBounds" />
          </mxGeometry>
        </mxCell>
        <mxCell id="ekZ0UK3QLFoGiUCUk67n-51" value="library[0]" style="text;html=1;strokeColor=none;fillColor=none;align=center;verticalAlign=middle;whiteSpace=wrap;rounded=0;" vertex="1" parent="ekZ0UK3QLFoGiUCUk67n-58">
          <mxGeometry width="90" height="30" as="geometry" />
        </mxCell>
        <mxCell id="ekZ0UK3QLFoGiUCUk67n-52" value="library[1]" style="text;html=1;strokeColor=none;fillColor=none;align=center;verticalAlign=middle;whiteSpace=wrap;rounded=0;" vertex="1" parent="ekZ0UK3QLFoGiUCUk67n-58">
          <mxGeometry x="90" width="90" height="30" as="geometry" />
        </mxCell>
        <mxCell id="ekZ0UK3QLFoGiUCUk67n-54" value="library[2]" style="text;html=1;strokeColor=none;fillColor=none;align=center;verticalAlign=middle;whiteSpace=wrap;rounded=0;" vertex="1" parent="ekZ0UK3QLFoGiUCUk67n-58">
          <mxGeometry x="175" width="90" height="30" as="geometry" />
        </mxCell>
        <mxCell id="ekZ0UK3QLFoGiUCUk67n-55" value="library[3]" style="text;html=1;strokeColor=none;fillColor=none;align=center;verticalAlign=middle;whiteSpace=wrap;rounded=0;" vertex="1" parent="ekZ0UK3QLFoGiUCUk67n-58">
          <mxGeometry x="265" width="90" height="30" as="geometry" />
        </mxCell>
        <mxCell id="ekZ0UK3QLFoGiUCUk67n-56" value="library[4]" style="text;html=1;strokeColor=none;fillColor=none;align=center;verticalAlign=middle;whiteSpace=wrap;rounded=0;" vertex="1" parent="ekZ0UK3QLFoGiUCUk67n-58">
          <mxGeometry x="350" width="90" height="30" as="geometry" />
        </mxCell>
        <mxCell id="ekZ0UK3QLFoGiUCUk67n-59" value="" style="shape=table;startSize=0;container=1;collapsible=0;childLayout=tableLayout;fontSize=16;" vertex="1" parent="1">
          <mxGeometry x="200" y="440" width="440" height="80" as="geometry" />
        </mxCell>
        <mxCell id="ekZ0UK3QLFoGiUCUk67n-60" value="" style="shape=tableRow;horizontal=0;startSize=0;swimlaneHead=0;swimlaneBody=0;strokeColor=inherit;top=0;left=0;bottom=0;right=0;collapsible=0;dropTarget=0;fillColor=none;points=[[0,0.5],[1,0.5]];portConstraint=eastwest;fontSize=16;" vertex="1" parent="ekZ0UK3QLFoGiUCUk67n-59">
          <mxGeometry width="440" height="40" as="geometry" />
        </mxCell>
        <mxCell id="ekZ0UK3QLFoGiUCUk67n-61" value="1" style="shape=partialRectangle;html=1;whiteSpace=wrap;connectable=0;strokeColor=inherit;overflow=hidden;fillColor=none;top=0;left=0;bottom=0;right=0;pointerEvents=1;fontSize=16;" vertex="1" parent="ekZ0UK3QLFoGiUCUk67n-60">
          <mxGeometry width="147" height="40" as="geometry">
            <mxRectangle width="147" height="40" as="alternateBounds" />
          </mxGeometry>
        </mxCell>
        <mxCell id="ekZ0UK3QLFoGiUCUk67n-62" value="2" style="shape=partialRectangle;html=1;whiteSpace=wrap;connectable=0;strokeColor=inherit;overflow=hidden;fillColor=none;top=0;left=0;bottom=0;right=0;pointerEvents=1;fontSize=16;" vertex="1" parent="ekZ0UK3QLFoGiUCUk67n-60">
          <mxGeometry x="147" width="146" height="40" as="geometry">
            <mxRectangle width="146" height="40" as="alternateBounds" />
          </mxGeometry>
        </mxCell>
        <mxCell id="ekZ0UK3QLFoGiUCUk67n-63" value="3" style="shape=partialRectangle;html=1;whiteSpace=wrap;connectable=0;strokeColor=inherit;overflow=hidden;fillColor=none;top=0;left=0;bottom=0;right=0;pointerEvents=1;fontSize=16;" vertex="1" parent="ekZ0UK3QLFoGiUCUk67n-60">
          <mxGeometry x="293" width="147" height="40" as="geometry">
            <mxRectangle width="147" height="40" as="alternateBounds" />
          </mxGeometry>
        </mxCell>
        <mxCell id="ekZ0UK3QLFoGiUCUk67n-64" value="" style="shape=tableRow;horizontal=0;startSize=0;swimlaneHead=0;swimlaneBody=0;strokeColor=inherit;top=0;left=0;bottom=0;right=0;collapsible=0;dropTarget=0;fillColor=none;points=[[0,0.5],[1,0.5]];portConstraint=eastwest;fontSize=16;" vertex="1" parent="ekZ0UK3QLFoGiUCUk67n-59">
          <mxGeometry y="40" width="440" height="40" as="geometry" />
        </mxCell>
        <mxCell id="ekZ0UK3QLFoGiUCUk67n-65" value="4" style="shape=partialRectangle;html=1;whiteSpace=wrap;connectable=0;strokeColor=inherit;overflow=hidden;fillColor=none;top=0;left=0;bottom=0;right=0;pointerEvents=1;fontSize=16;" vertex="1" parent="ekZ0UK3QLFoGiUCUk67n-64">
          <mxGeometry width="147" height="40" as="geometry">
            <mxRectangle width="147" height="40" as="alternateBounds" />
          </mxGeometry>
        </mxCell>
        <mxCell id="ekZ0UK3QLFoGiUCUk67n-66" value="5" style="shape=partialRectangle;html=1;whiteSpace=wrap;connectable=0;strokeColor=inherit;overflow=hidden;fillColor=none;top=0;left=0;bottom=0;right=0;pointerEvents=1;fontSize=16;" vertex="1" parent="ekZ0UK3QLFoGiUCUk67n-64">
          <mxGeometry x="147" width="146" height="40" as="geometry">
            <mxRectangle width="146" height="40" as="alternateBounds" />
          </mxGeometry>
        </mxCell>
        <mxCell id="ekZ0UK3QLFoGiUCUk67n-67" value="6" style="shape=partialRectangle;html=1;whiteSpace=wrap;connectable=0;strokeColor=inherit;overflow=hidden;fillColor=none;top=0;left=0;bottom=0;right=0;pointerEvents=1;fontSize=16;" vertex="1" parent="ekZ0UK3QLFoGiUCUk67n-64">
          <mxGeometry x="293" width="147" height="40" as="geometry">
            <mxRectangle width="147" height="40" as="alternateBounds" />
          </mxGeometry>
        </mxCell>
        <mxCell id="ekZ0UK3QLFoGiUCUk67n-80" value="arr[0][0]" style="text;html=1;strokeColor=none;fillColor=none;align=center;verticalAlign=middle;whiteSpace=wrap;rounded=0;" vertex="1" parent="1">
          <mxGeometry x="200" y="400" width="150" height="30" as="geometry" />
        </mxCell>
        <mxCell id="ekZ0UK3QLFoGiUCUk67n-81" value="arr[0][1]" style="text;html=1;strokeColor=none;fillColor=none;align=center;verticalAlign=middle;whiteSpace=wrap;rounded=0;" vertex="1" parent="1">
          <mxGeometry x="345" y="400" width="150" height="30" as="geometry" />
        </mxCell>
        <mxCell id="ekZ0UK3QLFoGiUCUk67n-82" value="arr[0][2]" style="text;html=1;strokeColor=none;fillColor=none;align=center;verticalAlign=middle;whiteSpace=wrap;rounded=0;" vertex="1" parent="1">
          <mxGeometry x="490" y="400" width="150" height="30" as="geometry" />
        </mxCell>
        <mxCell id="ekZ0UK3QLFoGiUCUk67n-83" value="arr[1][0]" style="text;html=1;strokeColor=none;fillColor=none;align=center;verticalAlign=middle;whiteSpace=wrap;rounded=0;" vertex="1" parent="1">
          <mxGeometry x="200" y="540" width="150" height="30" as="geometry" />
        </mxCell>
        <mxCell id="ekZ0UK3QLFoGiUCUk67n-84" value="arr[1][1]" style="text;html=1;strokeColor=none;fillColor=none;align=center;verticalAlign=middle;whiteSpace=wrap;rounded=0;" vertex="1" parent="1">
          <mxGeometry x="345" y="540" width="150" height="30" as="geometry" />
        </mxCell>
        <mxCell id="ekZ0UK3QLFoGiUCUk67n-85" value="arr[1][2]" style="text;html=1;strokeColor=none;fillColor=none;align=center;verticalAlign=middle;whiteSpace=wrap;rounded=0;" vertex="1" parent="1">
          <mxGeometry x="490" y="540" width="150" height="30" as="geometry" />
        </mxCell>
      </root>
    </mxGraphModel>
  </diagram>
</mxfile>
